# xmcd
#
# Track frame offsets:
#	150
#	17154
#	27244
#	38596
#	53128
#	66145
#	78267
#	91306
#	100752
#	114600
#	128464
#	139475
#	153257
#	169550
#	180118
#	190784
#	204840
#	215222
#	226631
#	241141
#	251743
#	263273
#	275407
#	285876
#
# Disc length: 3956 seconds
#
# Revision: 1
# Processed by: cddbd v1.5.1PL0 Copyright (c) Steve Scherf et al.
# Submitted via: audiograbber 1.83.01
#
DISCID=2d0f7218
DTITLE=Various Artist - Capital Gold Blues Legends - CD 2
DYEAR=2005
DGENRE=Blues
TTITLE0=BB King - Thrill Is Gone (The)
TTITLE1=Muddy Waters - Hoochie Coochie Man
TTITLE2=Howlin' Wolf - Smokestack Lightnin'
TTITLE3=Elmore James - Dust My Blues
TTITLE4=Big Mama Thornton Featuring Johnny Otis And His Orch - Hound Dog
TTITLE5=Etta James - I Just Want To Make Love To You
TTITLE6=Tommy Tucker - High Heel Sneakers
TTITLE7=Smiley Lewis - I Hear You Knocking
TTITLE8=T Bone Walker - Call It Stormy Monday
TTITLE9=Nina Simone - Gin House Blues
TTITLE10=Aaron Neville - Tell It Like It Is
TTITLE11=Koko Taylor - Wang Dang Doodle
TTITLE12=John Mayall's Bluesbreakers With Eric Clapton - All Your Love
TTITLE13=Bobby 'Blue' Band - Further On Up The Road
TTITLE14=Dale Hawkins - Susie Q
TTITLE15=Slim Harpo - I'm A King Bee
TTITLE16=Chuck Berry - Down The Road Apiece
TTITLE17=Bo Diddley - Bo Diddley
TTITLE18=Lowell Fulson - Reconsider Baby
TTITLE19=Buddy Guy - First Time I Met The Blues
TTITLE20=Otis Rush - So Many Roads So Many Trains
TTITLE21=Little Walter - My Babe
TTITLE22=Fats Domino - Blue Monday
TTITLE23=Shirley And Lee - Let The Good Times Roll
EXTD=
EXTT0=
EXTT1=
EXTT2=
EXTT3=
EXTT4=
EXTT5=
EXTT6=
EXTT7=
EXTT8=
EXTT9=
EXTT10=
EXTT11=
EXTT12=
EXTT13=
EXTT14=
EXTT15=
EXTT16=
EXTT17=
EXTT18=
EXTT19=
EXTT20=
EXTT21=
EXTT22=
EXTT23=
PLAYORDER=
